REM DIRINDEX 1\2\6,1\2\7,1\2\8,1\2\9,1\3\10,1\3\11,1\4\12,1\4\13,1\4\14,1\5\15,1\5\16,1\5\17
REM DIRNAME cjc029,folder01,folder02,folder03,folder04,folder05,folder06,folder07,folder08,folder09,folder10,folder11,folder12,folder13,folder14,folder15,folder16
TITLE ""
FILE "1400_3_sec01_0085_0100.mp3" MP3
  TRACK 01 AUDIO
    TITLE "0:"
    INDEX 01 00:00:00
  TRACK 02 AUDIO
    TITLE "17:cjc029_4596"
    INDEX 01 00:00:15
  TRACK 03 AUDIO
    TITLE "0:"
    INDEX 01 00:01:34
  TRACK 04 AUDIO
    TITLE "16:cjc029_4597"
    INDEX 01 00:01:38
  TRACK 05 AUDIO
    TITLE "0:"
    INDEX 01 00:02:32
  TRACK 06 AUDIO
    TITLE "17:cjc029_4598"
    INDEX 01 00:03:19
  TRACK 07 AUDIO
    TITLE "0:"
    INDEX 01 00:04:36
  TRACK 08 AUDIO
    TITLE "16:cjc029_4599"
    INDEX 01 00:04:40
  TRACK 09 AUDIO
    TITLE "0:"
    INDEX 01 00:05:44
  TRACK 10 AUDIO
    TITLE "17:cjc029_4600"
    INDEX 01 00:06:30
  TRACK 11 AUDIO
    TITLE "0:"
    INDEX 01 00:09:16
  TRACK 12 AUDIO
    TITLE "16:cjc029_4601"
    INDEX 01 00:09:24
  TRACK 13 AUDIO
    TITLE "0:"
    INDEX 01 00:10:37
  TRACK 14 AUDIO
    TITLE "17:cjc029_4602"
    INDEX 01 00:11:21
  TRACK 15 AUDIO
    TITLE "0:"
    INDEX 01 00:12:34
  TRACK 16 AUDIO
    TITLE "16:cjc029_4603"
    INDEX 01 00:12:38
  TRACK 17 AUDIO
    TITLE "0:"
    INDEX 01 00:13:45
  TRACK 18 AUDIO
    TITLE "17:cjc029_4604"
    INDEX 01 00:14:29
  TRACK 19 AUDIO
    TITLE "0:"
    INDEX 01 00:17:27
  TRACK 20 AUDIO
    TITLE "16:cjc029_4605"
    INDEX 01 00:17:31
  TRACK 21 AUDIO
    TITLE "0:"
    INDEX 01 00:18:31
  TRACK 22 AUDIO
    TITLE "17:cjc029_4606"
    INDEX 01 00:19:18
  TRACK 23 AUDIO
    TITLE "0:"
    INDEX 01 00:20:47
  TRACK 24 AUDIO
    TITLE "16:cjc029_4607"
    INDEX 01 00:20:53
  TRACK 25 AUDIO
    TITLE "0:"
    INDEX 01 00:21:58
  TRACK 26 AUDIO
    TITLE "17:cjc029_4608"
    INDEX 01 00:22:42
  TRACK 27 AUDIO
    TITLE "0:"
    INDEX 01 00:23:40
  TRACK 28 AUDIO
    TITLE "16:cjc029_4609"
    INDEX 01 00:23:50
  TRACK 29 AUDIO
    TITLE "0:"
    INDEX 01 00:24:45
  TRACK 30 AUDIO
    TITLE "17:cjc029_4610"
    INDEX 01 00:25:31
  TRACK 31 AUDIO
    TITLE "0:"
    INDEX 01 00:27:67
  TRACK 32 AUDIO
    TITLE "16:cjc029_4611"
    INDEX 01 00:28:00
  TRACK 33 AUDIO
    TITLE "0:"
    INDEX 01 00:28:74
  TRACK 34 AUDIO
    TITLE "17:cjc029_4612"
    INDEX 01 00:29:58
  TRACK 35 AUDIO
    TITLE "0:"
    INDEX 01 00:31:12
  TRACK 36 AUDIO
    TITLE "16:cjc029_4613"
    INDEX 01 00:31:18
  TRACK 37 AUDIO
    TITLE "0:"
    INDEX 01 00:32:23
  TRACK 38 AUDIO
    TITLE "17:cjc029_4614"
    INDEX 01 00:33:09
  TRACK 39 AUDIO
    TITLE "0:"
    INDEX 01 00:35:68
  TRACK 40 AUDIO
    TITLE "16:cjc029_4615"
    INDEX 01 00:35:74
  TRACK 41 AUDIO
    TITLE "0:"
    INDEX 01 00:37:14
  TRACK 42 AUDIO
    TITLE "17:cjc029_4616"
    INDEX 01 00:38:00
  TRACK 43 AUDIO
    TITLE "0:"
    INDEX 01 00:40:54
  TRACK 44 AUDIO
    TITLE "16:cjc029_4617"
    INDEX 01 00:40:58
  TRACK 45 AUDIO
    TITLE "0:"
    INDEX 01 00:41:65
  TRACK 46 AUDIO
    TITLE "17:cjc029_4618"
    INDEX 01 00:42:51
  TRACK 47 AUDIO
    TITLE "0:"
    INDEX 01 00:45:20
  TRACK 48 AUDIO
    TITLE "16:cjc029_4619"
    INDEX 01 00:45:26
  TRACK 49 AUDIO
    TITLE "0:"
    INDEX 01 00:46:31
  TRACK 50 AUDIO
    TITLE "17:cjc029_4620"
    INDEX 01 00:47:15
  TRACK 51 AUDIO
    TITLE "0:"
    INDEX 01 00:49:12
  TRACK 52 AUDIO
    TITLE "16:cjc029_4621"
    INDEX 01 00:49:20
  TRACK 53 AUDIO
    TITLE "0:"
    INDEX 01 00:50:19
  TRACK 54 AUDIO
    TITLE "17:cjc029_4622"
    INDEX 01 00:51:03
  TRACK 55 AUDIO
    TITLE "0:"
    INDEX 01 00:52:39
  TRACK 56 AUDIO
    TITLE "16:cjc029_4623"
    INDEX 01 00:52:43
  TRACK 57 AUDIO
    TITLE "0:"
    INDEX 01 00:53:53
  TRACK 58 AUDIO
    TITLE "17:cjc029_4624"
    INDEX 01 00:54:36
  TRACK 59 AUDIO
    TITLE "0:"
    INDEX 01 00:56:04
  TRACK 60 AUDIO
    TITLE "16:cjc029_4625"
    INDEX 01 00:56:08
  TRACK 61 AUDIO
    TITLE "0:"
    INDEX 01 00:57:17
  TRACK 62 AUDIO
    TITLE "17:cjc029_4626"
    INDEX 01 00:58:01
  TRACK 63 AUDIO
    TITLE "0:"
    INDEX 01 00:59:69
  TRACK 64 AUDIO
    TITLE "16:cjc029_4627"
    INDEX 01 00:59:73
  TRACK 65 AUDIO
    TITLE "0:"
    INDEX 01 01:01:01
